<?xml version="1.0" standalone="no"?>
<!DOCTYPE svg PUBLIC "-//W3C//DTD SVG 20010904//EN"
 "http://www.w3.org/TR/2001/REC-SVG-20010904/DTD/svg10.dtd">
<svg version="1.0" xmlns="http://www.w3.org/2000/svg"
 width="1032.000000pt" height="1032.000000pt" viewBox="0 0 1032.000000 1032.000000"
 preserveAspectRatio="xMidYMid meet">
<metadata>
Created by potrace 1.14, written by Peter Selinger 2001-2017
</metadata>
<g transform="translate(0.000000,1032.000000) scale(0.100000,-0.100000)"
fill="#000000" stroke="none">
<path d="M4873 9270 c-220 -58 -380 -229 -429 -461 -53 -247 76 -512 307 -634
290 -152 660 -24 805 279 45 92 57 162 52 276 -19 368 -380 633 -735 540z"/>
<path d="M0 6015 l0 -3165 593 2 592 3 3 1288 2 1287 1180 0 1180 0 0 470 0
470 -1180 0 -1180 0 0 935 0 935 1400 0 1400 0 0 470 0 470 -1995 0 -1995 0 0
-3165z"/>
<path d="M4427 5218 l-3 -2213 -26 -140 c-46 -245 -109 -402 -218 -546 -203
-270 -616 -377 -1091 -283 -148 29 -260 30 -315 1 -50 -26 -93 -78 -109 -132
-13 -43 -61 -548 -68 -704 l-2 -54 80 -19 c121 -27 345 -65 480 -80 180 -20
611 -17 755 5 242 36 443 98 645 198 567 280 904 806 1019 1591 33 223 36 401
36 2491 l0 2097 -590 0 -590 0 -3 -2212z"/>
<path d="M6413 5773 c3 -1562 3 -1568 25 -1681 47 -241 88 -374 168 -537 166
-336 437 -577 777 -690 499 -165 1088 -84 1531 210 83 55 192 144 325 263 57
52 70 60 75 45 3 -10 21 -96 40 -191 20 -95 41 -182 47 -193 20 -39 83 -101
123 -122 40 -21 53 -22 419 -25 l377 -3 0 2246 0 2245 -540 0 -540 0 0 -1623
0 -1623 -47 -45 c-187 -180 -433 -326 -648 -386 -93 -26 -113 -28 -290 -28
-206 0 -269 12 -390 72 -201 101 -329 311 -364 598 -7 62 -11 550 -11 1563 l0
1472 -540 0 -541 0 4 -1567z"/>
</g>
</svg>
